<svg width="27" height="30" viewBox="0 0 27 30" fill="none" xmlns="http://www.w3.org/2000/svg">
<path d="M26.6897 21.7434C25.9091 20.3988 24.7487 16.5942 24.7487 11.6251C24.7487 8.64085 23.5633 5.77887 21.4531 3.66873C19.343 1.55858 16.481 0.373108 13.4968 0.373108C10.5126 0.373108 7.65062 1.55858 5.54047 3.66873C3.43032 5.77887 2.24485 8.64085 2.24485 11.6251C2.24485 16.5956 1.08309 20.3988 0.302485 21.7434C0.103144 22.0852 -0.0025345 22.4736 -0.00389299 22.8693C-0.00525147 23.265 0.0977583 23.6541 0.294748 23.9973C0.491738 24.3405 0.775742 24.6256 1.11812 24.8241C1.46049 25.0225 1.84914 25.1271 2.24485 25.1274H7.98475C8.24435 26.3977 8.93473 27.5393 9.93912 28.3592C10.9435 29.1791 12.2003 29.6269 13.4968 29.6269C14.7933 29.6269 16.0501 29.1791 17.0545 28.3592C18.0589 27.5393 18.7492 26.3977 19.0088 25.1274H24.7487C25.1443 25.1268 25.5328 25.022 25.875 24.8235C26.2172 24.625 26.501 24.3398 26.6978 23.9966C26.8946 23.6535 26.9975 23.2645 26.9961 22.8689C26.9947 22.4733 26.889 22.0851 26.6897 21.7434ZM13.4968 27.3778C12.7989 27.3776 12.1183 27.161 11.5485 26.758C10.9788 26.355 10.5479 25.7853 10.3153 25.1274H16.6783C16.4457 25.7853 16.0148 26.355 15.4451 26.758C14.8753 27.161 14.1947 27.3776 13.4968 27.3778ZM2.24485 22.877C3.32785 21.0148 4.49524 16.6997 4.49524 11.6251C4.49524 9.23769 5.44362 6.94811 7.13174 5.25999C8.81985 3.57187 11.1094 2.6235 13.4968 2.6235C15.8842 2.6235 18.1737 3.57187 19.8619 5.25999C21.55 6.94811 22.4984 9.23769 22.4984 11.6251C22.4984 16.6955 23.6629 21.0106 24.7487 22.877H2.24485Z" fill="black"/>
</svg>
