<svg width="23" height="25" viewBox="0 0 23 25" fill="none" xmlns="http://www.w3.org/2000/svg">
<path d="M22.7408 18.1815C22.0904 17.0612 21.1236 13.8913 21.1236 9.75104C21.1236 7.26463 20.1359 4.88006 18.3778 3.12191C16.6196 1.36376 14.235 0.376038 11.7486 0.376038C9.26224 0.376038 6.87767 1.36376 5.11952 3.12191C3.36136 4.88006 2.37364 7.26463 2.37364 9.75104C2.37364 13.8924 1.40567 17.0612 0.755282 18.1815C0.589193 18.4663 0.501143 18.7899 0.500011 19.1196C0.498879 19.4493 0.584706 19.7735 0.748836 20.0594C0.912965 20.3454 1.14959 20.583 1.43486 20.7483C1.72012 20.9136 2.04394 21.0008 2.37364 21.001H7.15606C7.37236 22.0594 7.94758 23.0106 8.78442 23.6937C9.62127 24.3769 10.6684 24.75 11.7486 24.75C12.8289 24.75 13.876 24.3769 14.7129 23.6937C15.5497 23.0106 16.1249 22.0594 16.3412 21.001H21.1236C21.4532 21.0006 21.7769 20.9133 22.062 20.7479C22.3471 20.5825 22.5836 20.3448 22.7476 20.0589C22.9116 19.773 22.9973 19.4489 22.9961 19.1193C22.9949 18.7897 22.9069 18.4662 22.7408 18.1815ZM11.7486 22.876C11.1672 22.8759 10.6001 22.6955 10.1254 22.3597C9.65065 22.0239 9.29168 21.5492 9.09786 21.001H14.3994C14.2056 21.5492 13.8466 22.0239 13.3719 22.3597C12.8972 22.6955 12.3301 22.8759 11.7486 22.876ZM2.37364 19.126C3.27599 17.5745 4.24864 13.9792 4.24864 9.75104C4.24864 7.76191 5.03882 5.85426 6.44534 4.44774C7.85186 3.04121 9.75952 2.25104 11.7486 2.25104C13.7378 2.25104 15.6454 3.04121 17.0519 4.44774C18.4585 5.85426 19.2486 7.76191 19.2486 9.75104C19.2486 13.9756 20.219 17.571 21.1236 19.126H2.37364Z" fill="white"/>
</svg>
