<svg width="20" height="22" viewBox="0 0 20 22" fill="none" xmlns="http://www.w3.org/2000/svg">
<path opacity="0.4" d="M19.2308 21.2821H0.769231C0.348718 21.2821 0 20.9333 0 20.5128C0 20.0923 0.348718 19.7436 0.769231 19.7436H19.2308C19.6513 19.7436 20 20.0923 20 20.5128C20 20.9333 19.6513 21.2821 19.2308 21.2821Z" fill="#FF51A4"/>
<path d="M3.4359 6.54349H1.7949C1.2308 6.54349 0.769257 7.00503 0.769257 7.56913V16.4102C0.769257 16.9743 1.2308 17.4358 1.7949 17.4358H3.4359C4.00001 17.4358 4.46154 16.9743 4.46154 16.4102V7.56913C4.46154 6.99477 4.00001 6.54349 3.4359 6.54349Z" fill="#FF51A4"/>
<path d="M10.8197 3.27173H9.17866C8.61455 3.27173 8.15302 3.73327 8.15302 4.29737V16.4101C8.15302 16.9743 8.61455 17.4358 9.17866 17.4358H10.8197C11.3838 17.4358 11.8453 16.9743 11.8453 16.4101V4.29737C11.8453 3.73327 11.3838 3.27173 10.8197 3.27173Z" fill="#FF51A4"/>
<path d="M18.2055 0H16.5645C16.0004 0 15.5389 0.461539 15.5389 1.02564V16.4103C15.5389 16.9744 16.0004 17.4359 16.5645 17.4359H18.2055C18.7696 17.4359 19.2312 16.9744 19.2312 16.4103V1.02564C19.2312 0.461539 18.7696 0 18.2055 0Z" fill="#FF51A4"/>
</svg>
