<svg width="27" height="28" viewBox="0 0 27 28" fill="none" xmlns="http://www.w3.org/2000/svg">
<path d="M13.5 27.5C9.75 27.5 6.5625 26.1875 3.9375 23.5625C1.3125 20.9375 0 17.75 0 14C0 10.25 1.3125 7.0625 3.9375 4.4375C6.5625 1.8125 9.75 0.5 13.5 0.5C13.85 0.5 14.194 0.5125 14.532 0.5375C14.87 0.5625 15.201 0.6 15.525 0.65C14.5 1.375 13.681 2.319 13.068 3.482C12.455 4.645 12.149 5.901 12.15 7.25C12.15 9.5 12.9375 11.4125 14.5125 12.9875C16.0875 14.5625 18 15.35 20.25 15.35C21.625 15.35 22.8875 15.0435 24.0375 14.4305C25.1875 13.8175 26.125 12.999 26.85 11.975C26.9 12.3 26.9375 12.631 26.9625 12.968C26.9875 13.305 27 13.649 27 14C27 17.75 25.6875 20.9375 23.0625 23.5625C20.4375 26.1875 17.25 27.5 13.5 27.5Z" fill="black"/>
</svg>
