<svg width="25" height="25" viewBox="0 0 25 25" fill="none" xmlns="http://www.w3.org/2000/svg">
<path d="M9.37969 3.23808C10.2344 3.11608 10.9375 3.82928 10.9375 4.69264V14.0769H20.3125C21.175 14.0769 21.8875 14.7807 21.7656 15.6363C21.3653 18.3713 19.9464 20.8537 17.7938 22.5852C15.6412 24.3167 12.914 25.1694 10.1595 24.972C7.40505 24.7747 4.827 23.542 2.94268 21.5212C1.05835 19.5005 0.00715146 16.8412 0 14.0769C0.000138346 11.4432 0.948451 8.89777 2.67114 6.90709C4.39383 4.91641 6.77551 3.61383 9.37969 3.23808ZM23.5344 12.5129C24.3125 12.5129 24.9828 11.9404 24.9984 11.1615L25 10.9488C25.0001 9.49312 24.7101 8.05202 24.1471 6.70984C23.5841 5.36765 22.7594 4.15133 21.7212 3.13202C20.6829 2.11271 19.452 1.31089 18.1005 0.773459C16.749 0.236029 15.304 -0.0262154 13.85 0.00206667C13.0719 0.0177071 12.5 0.690246 12.5 1.46758V10.9488C12.5 11.3636 12.6646 11.7614 12.9576 12.0548C13.2507 12.3481 13.6481 12.5129 14.0625 12.5129H23.5344Z" fill="white"/>
</svg>
