<svg width="28" height="28" viewBox="0 0 28 28" fill="none" xmlns="http://www.w3.org/2000/svg">
<path d="M13.75 20.25C12.0208 20.25 10.5467 19.6404 9.32751 18.4213C8.10834 17.2021 7.49917 15.7283 7.5 14C7.5 12.2708 8.10959 10.7967 9.32876 9.57751C10.5479 8.35834 12.0217 7.74917 13.75 7.75C15.4792 7.75 16.9533 8.35959 18.1725 9.57876C19.3917 10.7979 20.0008 12.2717 20 14C20 15.7292 19.3904 17.2033 18.1713 18.4225C16.9521 19.6417 15.4783 20.2508 13.75 20.25ZM1.25 15.25C0.895838 15.25 0.598754 15.13 0.358754 14.89C0.118754 14.65 -0.000829008 14.3533 4.32526e-06 14C4.32526e-06 13.6458 0.120004 13.3488 0.360004 13.1088C0.600004 12.8688 0.896671 12.7492 1.25 12.75H3.75C4.10417 12.75 4.40125 12.87 4.64125 13.11C4.88125 13.35 5.00084 13.6467 5 14C5 14.3542 4.88 14.6513 4.64 14.8913C4.4 15.1313 4.10334 15.2508 3.75 15.25H1.25ZM23.75 15.25C23.3958 15.25 23.0988 15.13 22.8588 14.89C22.6188 14.65 22.4992 14.3533 22.5 14C22.5 13.6458 22.62 13.3488 22.86 13.1088C23.1 12.8688 23.3967 12.7492 23.75 12.75H26.25C26.6042 12.75 26.9013 12.87 27.1413 13.11C27.3813 13.35 27.5008 13.6467 27.5 14C27.5 14.3542 27.38 14.6513 27.14 14.8913C26.9 15.1313 26.6033 15.2508 26.25 15.25H23.75ZM13.75 5.25C13.3958 5.25 13.0988 5.13 12.8588 4.89C12.6188 4.65 12.4992 4.35334 12.5 4V1.5C12.5 1.14584 12.62 0.848754 12.86 0.608754C13.1 0.368754 13.3967 0.249171 13.75 0.250004C14.1042 0.250004 14.4013 0.370004 14.6413 0.610004C14.8813 0.850004 15.0008 1.14667 15 1.5V4C15 4.35417 14.88 4.65125 14.64 4.89125C14.4 5.13125 14.1033 5.25084 13.75 5.25ZM13.75 27.75C13.3958 27.75 13.0988 27.63 12.8588 27.39C12.6188 27.15 12.4992 26.8533 12.5 26.5V24C12.5 23.6458 12.62 23.3488 12.86 23.1088C13.1 22.8688 13.3967 22.7492 13.75 22.75C14.1042 22.75 14.4013 22.87 14.6413 23.11C14.8813 23.35 15.0008 23.6467 15 24V26.5C15 26.8542 14.88 27.1513 14.64 27.3913C14.4 27.6313 14.1033 27.7508 13.75 27.75ZM5.8125 7.81251L4.46875 6.5C4.21875 6.27084 4.09875 5.97917 4.10876 5.625C4.11875 5.27084 4.23875 4.96875 4.46875 4.71875C4.71875 4.46875 5.02084 4.34375 5.375 4.34375C5.72917 4.34375 6.02084 4.46875 6.25 4.71875L7.56251 6.0625C7.79167 6.3125 7.90625 6.60417 7.90625 6.9375C7.90625 7.27084 7.79167 7.56251 7.56251 7.81251C7.33334 8.06251 7.04709 8.1825 6.70375 8.1725C6.36042 8.1625 6.06334 8.04251 5.8125 7.81251ZM21.25 23.2813L19.9375 21.9375C19.7083 21.6875 19.5938 21.3904 19.5938 21.0463C19.5938 20.7021 19.7083 20.4158 19.9375 20.1875C20.1667 19.9375 20.4533 19.8179 20.7975 19.8288C21.1417 19.8396 21.4383 19.9592 21.6875 20.1875L23.0313 21.5C23.2813 21.7292 23.4013 22.0208 23.3913 22.375C23.3813 22.7292 23.2613 23.0313 23.0313 23.2813C22.7813 23.5313 22.4792 23.6563 22.125 23.6563C21.7708 23.6563 21.4792 23.5313 21.25 23.2813ZM19.9375 7.81251C19.6875 7.58334 19.5675 7.29709 19.5775 6.95375C19.5875 6.61042 19.7075 6.31334 19.9375 6.0625L21.25 4.71875C21.4792 4.46875 21.7708 4.34875 22.125 4.35876C22.4792 4.36875 22.7813 4.48875 23.0313 4.71875C23.2813 4.96875 23.4063 5.27084 23.4063 5.625C23.4063 5.97917 23.2813 6.27084 23.0313 6.5L21.6875 7.81251C21.4375 8.04167 21.1458 8.15625 20.8125 8.15625C20.4792 8.15625 20.1875 8.04167 19.9375 7.81251ZM4.46875 23.2813C4.21875 23.0313 4.09375 22.7292 4.09375 22.375C4.09375 22.0208 4.21875 21.7292 4.46875 21.5L5.8125 20.1875C6.0625 19.9583 6.35917 19.8438 6.7025 19.8438C7.04584 19.8438 7.33251 19.9583 7.56251 20.1875C7.81251 20.4167 7.9325 20.7033 7.9225 21.0475C7.9125 21.3917 7.79251 21.6883 7.56251 21.9375L6.25 23.2813C6.02084 23.5313 5.72917 23.6513 5.375 23.6413C5.02084 23.6313 4.71875 23.5113 4.46875 23.2813Z" fill="white"/>
</svg>
